<?xml version="1.0" encoding="utf-8"?>
<!DOCTYPE svg PUBLIC "-//W3C//DTD SVG 20010904//EN" "http://www.w3.org/TR/2001/REC-SVG-20010904/DTD/svg10.dtd">
<svg version="1.0" xmlns="http://www.w3.org/2000/svg" viewBox="0 0 192 192" style="" preserveAspectRatio="xMidYMid meet">
<g fill="#FFFFFFFF" stroke="#2E6CA4FF">
<path d="M 74.000 2.880 C 64.538 6.000 56.500 10.183 56.500 11.986 C 56.500 12.635 56.183 12.850 55.796 12.463 C 54.760 11.427 46.875 17.989 47.650 19.242 C 48.012 19.829 47.844 20.022 47.276 19.671 C 44.714 18.087 32.310 35.066 27.952 46.123 C 25.571 52.164 22.996 65.839 23.013 72.360 C 23.041 83.090 29.451 106.075 31.980 104.512 C 32.529 104.173 32.748 104.492 32.469 105.221 C 32.189 105.950 33.290 108.643 34.915 111.205 C 40.344 119.765 67.252 155.081 67.873 154.461 C 68.209 154.124 68.488 154.489 68.492 155.273 C 68.502 157.137 94.171 191.890 95.584 191.952 C 96.180 191.979 99.901 187.613 103.852 182.250 C 107.803 176.888 115.279 166.875 120.464 160.000 C 143.837 129.013 154.799 114.134 157.668 109.500 C 176.977 78.318 168.247 34.576 138.507 13.497 C 124.227 3.375 113.265 -0.017 95.020 0.038 C 84.054 0.072 81.445 0.424 74.000 2.880 M 104.500 25.508 C 108.289 25.882 115.389 28.669 120.237 31.684 C 122.292 32.963 124.317 33.953 124.737 33.886 C 125.157 33.818 125.294 33.816 125.042 33.882 C 124.790 33.947 126.450 35.913 128.731 38.250 C 137.271 47.002 143.000 60.506 143.000 71.885 C 143.000 87.526 133.905 103.749 120.364 112.260 C 101.011 124.424 72.473 119.461 58.976 101.585 C 45.518 83.759 45.148 60.226 58.071 43.910 C 59.780 41.752 61.279 39.305 61.401 38.472 C 61.524 37.639 61.904 37.237 62.246 37.579 C 62.588 37.921 63.910 37.218 65.184 36.016 C 70.416 31.079 80.698 26.397 88.440 25.424 C 90.622 25.150 92.654 24.678 92.954 24.376 C 93.254 24.074 95.300 24.139 97.500 24.520 C 99.700 24.900 102.850 25.345 104.500 25.508 "/></g>
<g fill="#FFFFFFFF" stroke="#2E6CA4FF">
<path d="M 71.763 40.206 C 69.224 42.099 68.438 47.289 70.440 48.951 C 71.899 50.161 71.836 50.395 69.777 51.402 C 65.771 53.361 63.700 59.295 63.700 68.814 C 63.700 76.847 63.858 77.481 66.406 79.673 C 68.633 81.588 70.251 82.000 75.556 82.000 L 82.000 82.000 82.000 91.032 C 82.000 99.481 82.145 100.119 84.250 100.914 C 88.841 102.648 90.000 100.737 90.000 91.436 L 90.000 82.941 95.250 86.288 C 100.139 89.405 100.522 89.939 100.819 94.048 C 101.195 99.255 102.392 101.000 105.587 101.000 C 108.924 101.000 110.000 98.212 110.000 89.566 L 110.000 82.000 115.435 82.000 C 122.792 82.000 125.531 80.785 126.877 76.922 C 130.171 67.474 125.962 51.000 120.254 51.000 C 119.132 51.000 119.166 50.691 120.429 49.429 C 122.872 46.985 122.420 42.322 119.558 40.446 C 116.765 38.616 112.500 38.850 112.500 40.833 C 112.500 41.567 112.199 41.866 111.831 41.498 C 111.463 41.130 110.676 41.738 110.081 42.849 C 108.595 45.625 110.281 49.715 113.519 51.190 C 115.081 51.902 115.867 52.905 115.536 53.766 C 115.239 54.541 114.714 56.936 114.370 59.087 C 113.766 62.864 113.601 63.006 109.622 63.183 C 107.355 63.284 104.523 63.317 103.329 63.256 C 101.144 63.144 99.512 65.401 100.556 67.090 C 100.868 67.595 98.619 68.000 95.500 68.000 C 92.381 68.000 90.132 67.595 90.444 67.090 C 91.488 65.401 89.856 63.144 87.671 63.256 C 86.477 63.317 83.588 63.284 81.250 63.183 C 77.041 63.002 77.000 62.964 76.985 59.250 C 76.976 57.188 76.552 54.841 76.043 54.035 C 75.342 52.928 75.826 52.272 78.023 51.348 C 83.863 48.893 82.702 39.823 76.469 39.206 C 74.836 39.044 72.719 39.494 71.763 40.206 M 103.000 74.000 C 101.900 75.100 101.000 76.886 101.000 77.969 C 101.000 80.348 99.791 79.991 92.000 75.310 L 86.500 72.005 95.750 72.003 L 105.000 72.000 103.000 74.000 "/></g>
<g fill="#FFFFFFFF" stroke="#2E6CA4FF">
<path d="M 91.016 42.707 C 88.692 45.661 88.944 49.606 91.587 51.634 C 92.829 52.587 92.672 52.866 90.602 53.385 C 87.212 54.236 85.000 56.678 85.000 59.571 C 85.000 61.989 85.049 62.000 95.500 62.000 C 105.732 62.000 105.999 61.942 105.968 59.750 C 105.925 56.699 103.911 54.267 100.775 53.480 C 98.213 52.837 98.202 52.798 100.087 50.913 C 102.565 48.435 102.527 44.527 100.000 42.000 C 97.184 39.184 93.563 39.469 91.016 42.707 "/></g>
<g fill="#FFFFFFFF" stroke="#2E6CA4FF">
<path d="M 130.947 62.250 C 130.918 62.388 130.774 65.942 130.628 70.150 C 130.238 81.322 128.981 82.832 119.756 83.206 C 113.097 83.476 112.474 83.685 112.180 85.750 C 111.871 87.931 112.117 87.999 120.180 87.968 C 125.132 87.949 129.146 87.443 130.096 86.718 C 132.858 84.611 135.200 78.889 135.740 72.927 C 136.418 65.458 135.544 62.000 132.981 62.000 C 131.891 62.000 130.976 62.113 130.947 62.250 "/></g>
<g fill="#FFFFFFFF" stroke="#2E6CA4FF">
<path d="M 55.714 66.093 C 55.090 70.745 56.296 79.815 57.948 82.902 C 60.052 86.835 63.073 88.000 71.163 88.000 C 78.870 88.000 81.350 86.953 79.066 84.663 C 78.428 84.023 74.669 83.275 70.712 83.000 C 63.997 82.533 63.426 82.310 62.154 79.646 C 61.405 78.077 60.726 73.577 60.646 69.646 C 60.514 63.191 60.296 62.471 58.389 62.199 C 56.597 61.943 56.192 62.534 55.714 66.093 "/></g>
</svg>
